<svg width="29" height="29" viewBox="0 0 29 29" fill="none" xmlns="http://www.w3.org/2000/svg">
<path d="M26.0337 8.5418C25.7873 8.5418 25.5517 8.44064 25.3819 8.26198L22.688 5.42627C22.4954 5.22352 22.4054 4.94207 22.462 4.6682C22.5592 4.1978 22.6883 3.75829 22.8428 3.36334C22.9809 3.01855 23.0358 2.64315 23.0027 2.2706C22.9695 1.89804 22.8493 1.53991 22.6528 1.22811C22.4563 0.916304 22.1895 0.660524 21.8763 0.483561C21.5631 0.306597 21.2132 0.213947 20.8577 0.213867C18.6605 0.213867 16.7004 1.25153 15.3841 2.87422C15.2012 3.09968 14.9316 3.24221 14.6413 3.24221H7.91154C3.53862 3.24221 0 6.96707 0 11.5701C0 15.5509 2.68949 25.6693 3.41672 28.3326C3.52287 28.7213 3.87462 28.9831 4.27756 28.9831H10.6087C11.1052 28.9831 11.5077 28.5806 11.5077 28.0841V26.8538C11.5077 26.3573 11.9102 25.9548 12.4067 25.9548H13.4856C13.9821 25.9548 14.3846 26.3573 14.3846 26.8538V28.0841C14.3846 28.5806 14.7871 28.9831 15.2837 28.9831H21.6179C22.0193 28.9831 22.3722 28.7169 22.4824 28.3309L24.585 20.9663C24.6651 20.6857 24.8765 20.4614 25.1519 20.3648L28.1679 19.3066C28.5281 19.1802 28.7692 18.84 28.7692 18.4582V9.44084C28.7692 8.94431 28.3667 8.5418 27.8702 8.5418H26.0337ZM15.8231 9.91402C15.8231 10.4105 15.4206 10.8131 14.924 10.8131H9.52981C9.03328 10.8131 8.63077 10.4105 8.63077 9.91402V8.68375C8.63077 8.18723 9.03328 7.78472 9.52981 7.78472H14.924C15.4206 7.78472 15.8231 8.18723 15.8231 8.68376V9.91402ZM20.1385 13.8414C19.3473 13.8414 18.7 13.16 18.7 12.3272C18.7 11.4944 19.3473 10.8131 20.1385 10.8131C20.9296 10.8131 21.5769 11.4944 21.5769 12.3272C21.5769 13.16 20.9296 13.8414 20.1385 13.8414Z" fill="white" fill-opacity="0.75"/>
</svg>
