<svg width="19" height="29" viewBox="0 0 19 29" fill="none" xmlns="http://www.w3.org/2000/svg">
<path opacity="0.75" d="M9.33171 0.213867C5.25332 0.213867 2.61174 2.05145 0.537828 5.32861C0.161613 5.9231 0.277599 6.73819 0.8024 7.1758L3.00655 9.01371C3.53657 9.45564 4.29068 9.35231 4.70563 8.78064C5.98552 7.01734 6.93492 6.0021 8.93413 6.0021C10.506 6.0021 12.4503 7.11461 12.4503 8.79086C12.4503 10.0581 11.4991 10.7088 9.947 11.6658C8.13704 12.7817 5.7419 14.1705 5.7419 17.6446V18.1946C5.7419 18.9394 6.29092 19.5432 6.96819 19.5432H10.6711C11.3484 19.5432 11.8974 18.9394 11.8974 18.1946V17.8703C11.8974 15.462 18.298 15.3617 18.298 8.84464C18.2981 3.93679 13.6687 0.213867 9.33171 0.213867ZM8.81968 21.1985C6.86804 21.1985 5.28025 22.9446 5.28025 25.0908C5.28025 27.237 6.86804 28.9831 8.81968 28.9831C10.7713 28.9831 12.3591 27.237 12.3591 25.0908C12.3591 22.9445 10.7713 21.1985 8.81968 21.1985Z" fill="white"/>
</svg>
