<svg width="29" height="29" viewBox="0 0 29 29" fill="none" xmlns="http://www.w3.org/2000/svg">
<path opacity="0.75" d="M25.6062 16.0082C25.6653 15.5479 25.7097 15.0876 25.7097 14.5985C25.7097 14.1094 25.6653 13.6491 25.6062 13.1888L28.7265 10.8154C29.0075 10.5996 29.0814 10.2112 28.9039 9.89476L25.9463 4.91769C25.7689 4.60123 25.3696 4.48616 25.0442 4.60123L21.362 6.03969C20.593 5.46431 19.7649 4.98962 18.8628 4.63L18.3008 0.818087C18.2764 0.64884 18.1893 0.494089 18.0559 0.382861C17.9225 0.271633 17.7519 0.211569 17.5762 0.213934H11.661C11.2913 0.213934 10.9807 0.472857 10.9363 0.818087L10.3744 4.63C9.47232 4.98962 8.64418 5.47869 7.8752 6.03969L4.19295 4.60123C3.85282 4.47177 3.46833 4.60123 3.29087 4.91769L0.333241 9.89476C0.140996 10.2112 0.229725 10.5996 0.510699 10.8154L3.631 13.1888C3.57185 13.6491 3.52748 14.1238 3.52748 14.5985C3.52748 15.0732 3.57185 15.5479 3.631 16.0082L0.510699 18.3817C0.229725 18.5974 0.155784 18.9858 0.333241 19.3023L3.29087 24.2793C3.46833 24.5958 3.86761 24.7109 4.19295 24.5958L7.8752 23.1573C8.64418 23.7327 9.47232 24.2074 10.3744 24.567L10.9363 28.3789C10.9807 28.7242 11.2913 28.9831 11.661 28.9831H17.5762C17.9459 28.9831 18.2565 28.7242 18.3008 28.3789L18.8628 24.567C19.7649 24.2074 20.593 23.7183 21.362 23.1573L25.0442 24.5958C25.3844 24.7253 25.7689 24.5958 25.9463 24.2793L28.9039 19.3023C29.0814 18.9858 29.0075 18.5974 28.7265 18.3817L25.6062 16.0082ZM14.6186 19.6331C11.7645 19.6331 9.44274 17.3747 9.44274 14.5985C9.44274 11.8223 11.7645 9.56391 14.6186 9.56391C17.4727 9.56391 19.7944 11.8223 19.7944 14.5985C19.7944 17.3747 17.4727 19.6331 14.6186 19.6331Z" fill="white"/>
</svg>
