<svg width="29" height="29" viewBox="0 0 29 29" fill="none" xmlns="http://www.w3.org/2000/svg">
<path opacity="0.75" d="M23.3894 7.40617V2.01194C23.3894 1.01907 22.5842 0.213867 21.5913 0.213867H1.81248C0.819606 0.213867 0.0144043 1.01907 0.0144043 2.01194V7.40617C0.0144043 8.39905 0.819606 9.20425 1.81248 9.20425H21.5913C22.5842 9.20425 23.3894 8.39905 23.3894 7.40617ZM25.1875 3.81002V11.0023C25.1875 11.9952 24.3823 12.8004 23.3894 12.8004H14.399C12.4127 12.8004 10.8029 14.4102 10.8029 16.3966V18.1946C9.80999 18.1946 9.00479 18.9998 9.00479 19.9927V27.185C9.00479 28.1779 9.80999 28.9831 10.8029 28.9831H14.399C15.3919 28.9831 16.1971 28.1779 16.1971 27.185V19.9927C16.1971 18.9998 15.3919 18.1946 14.399 18.1946V16.3966H23.3894C26.3686 16.3966 28.7836 13.9815 28.7836 11.0023V7.40617C28.7836 5.41986 27.1738 3.81002 25.1875 3.81002Z" fill="white"/>
</svg>
